<svg xmlns="http://www.w3.org/2000/svg" viewBox="0 0 355.94 356.07"><defs><style>.cls-1{fill:#231815;}</style></defs><title>资源 3mdpi</title><g id="图层_2" data-name="图层 2"><g id="图层_1-2" data-name="图层 1"><path d="M0,178.25C-.83,80.37,79.64,2.46,173.51.06c97.28-2.49,179.93,76.63,182.38,173.58,2.4,95.11-74.8,185.19-183.51,182.37C78.44,353.57-.58,275.71,0,178.25ZM178,25.7C95.48,25.14,27.19,92.78,25.34,174.41,23.45,258.06,91,328.55,174.17,330.54c84,2,154.93-65.81,156.15-150.26C331.54,96.44,263.23,25.22,178,25.7Z"/><circle cx="167.19" cy="113.37" r="28.38"/><circle cx="87.4" cy="113.37" r="28.38"/><path class="cls-1" d="M296.41,188.79H59.54c-.34,3.62-.52,7.29-.52,11a119,119,0,0,0,237.9,0C296.92,196.08,296.74,192.41,296.41,188.79ZM178,296.74a97.09,97.09,0,0,1-96.32-86H274.29A97.09,97.09,0,0,1,178,296.74Z"/></g></g></svg>